<svg width="132" height="41" viewBox="0 0 132 41" fill="none" xmlns="http://www.w3.org/2000/svg">
<g clip-path="url(#clip0)">
<path d="M131.651 18.8959C131.116 8.06518 115.466 -0.798177 98.1506 0.0574135C92.6071 0.330705 87.2049 1.56518 82.4534 3.58226C81.5823 4.99685 80.708 6.40834 79.9596 7.89126C85.5652 4.7319 91.8513 2.97393 98.2826 2.76704C115.329 1.92387 128.531 10.663 128.944 19.0295C129.357 27.3959 117.081 37.3928 100.036 38.2344C82.9907 39.076 69.7888 30.3369 69.3757 21.9705C69.3687 19.3962 70.1878 16.8876 71.7127 14.8136C71.3042 14.6491 70.9148 14.4409 70.5512 14.1925L70.2407 14.8028C70.2111 14.9068 70.1832 15.0124 70.1599 15.1133C69.7857 16.8338 68.5357 18.0496 67.0139 18.6599C66.7611 19.7858 66.6423 20.9377 66.6599 22.0916C67.1956 32.9223 82.8462 41.7841 100.161 40.9301C117.477 40.076 132.186 29.7267 131.651 18.8959Z" fill="#FFFDFD"/>
<path d="M108.647 8.95185C105.783 6.61589 102.154 5.42717 98.4626 5.61636C94.7716 5.80555 91.2824 7.35917 88.6722 9.97573C86.062 12.5923 84.5169 16.0852 84.3366 19.7767C84.1564 23.4682 85.3539 27.095 87.6968 29.9534C90.0398 32.8118 93.361 34.6979 97.016 35.2458C100.671 35.7936 104.399 34.9642 107.477 32.9183C110.555 30.8725 112.764 27.7561 113.674 24.174C114.584 20.5919 114.13 16.7995 112.402 13.5326C112.321 13.371 112.208 13.2274 112.07 13.11C111.933 12.9927 111.773 12.904 111.6 12.8492C111.428 12.7944 111.246 12.7746 111.066 12.7909C110.886 12.8072 110.711 12.8594 110.551 12.9442C110.391 13.0291 110.25 13.1451 110.136 13.2852C110.022 13.4254 109.936 13.587 109.885 13.7606C109.834 13.9341 109.818 14.1161 109.839 14.2959C109.859 14.4756 109.915 14.6496 110.003 14.8074C111.411 17.4805 111.777 20.5809 111.03 23.5082C110.282 26.4355 108.475 28.9814 105.959 30.6526C103.442 32.3239 100.394 33.0017 97.4065 32.5546C94.4186 32.1076 91.7029 30.5675 89.7855 28.2328C87.8681 25.8981 86.8854 22.9349 87.0277 19.9171C87.17 16.8993 88.4273 14.0417 90.5559 11.8978C92.6846 9.75388 95.5331 8.47628 98.5498 8.31243C101.567 8.14857 104.537 9.11013 106.885 11.0109C107.159 11.2337 107.51 11.3406 107.862 11.3088C108.214 11.2769 108.54 11.1087 108.77 10.8402C109 10.5716 109.115 10.2239 109.093 9.87118C109.07 9.51843 108.91 9.18854 108.647 8.95185Z" fill="#FFFDFD"/>
<path d="M99.1599 11.0109C97.2829 11.0106 95.448 11.5669 93.8873 12.6095C92.3265 13.6522 91.11 15.1342 90.3917 16.8683C89.6733 18.6024 89.4854 20.5105 89.8516 22.3514C90.2178 24.1923 91.1217 25.8833 92.4491 27.2104C93.7764 28.5375 95.4675 29.4411 97.3085 29.8071C99.1494 30.173 101.058 29.9847 102.791 29.2661C104.525 28.5474 106.007 27.3307 107.05 25.7698C108.092 24.2089 108.648 22.3739 108.647 20.4969C108.647 17.981 107.647 15.5685 105.868 13.7896C104.089 12.0108 101.676 11.0113 99.1599 11.0109ZM99.1599 27.2764C97.8194 27.2767 96.5088 26.8795 95.394 26.135C94.2792 25.3904 93.4102 24.3321 92.8969 23.0937C92.3836 21.8553 92.2491 20.4925 92.5103 19.1777C92.7716 17.8628 93.4168 16.6549 94.3645 15.7068C95.3122 14.7587 96.5198 14.1129 97.8345 13.851C99.1493 13.5892 100.512 13.7231 101.751 14.2358C102.989 14.7486 104.048 15.6171 104.793 16.7315C105.538 17.846 105.936 19.1563 105.936 20.4969C105.937 21.387 105.762 22.2685 105.421 23.0911C105.081 23.9136 104.582 24.661 103.953 25.2905C103.323 25.9201 102.576 26.4195 101.754 26.7603C100.931 27.101 100.05 27.2764 99.1599 27.2764Z" fill="#C2EABD"/>
<path d="M7.3447 26.6319C6.03291 26.6523 4.7403 26.3152 3.60557 25.6567C2.51299 25.0186 1.60951 24.1018 0.987559 22.9999C0.337492 21.8414 -0.00266409 20.5348 -1.89301e-05 19.2064V7.02785C-0.00803989 6.84537 0.0222172 6.66324 0.0888068 6.49315C0.155396 6.32307 0.256844 6.1688 0.386627 6.04027C0.515993 5.91601 0.668914 5.81888 0.836386 5.75461C1.00386 5.69035 1.1825 5.66023 1.36178 5.66605C1.54345 5.65779 1.72488 5.68672 1.89497 5.75107C2.06506 5.81542 2.22021 5.91384 2.35091 6.04027C2.47688 6.17093 2.57489 6.32588 2.63897 6.49568C2.70304 6.66548 2.73183 6.84655 2.72358 7.02785V14.239C3.34266 13.4945 4.11205 12.8891 4.98135 12.4626C5.88297 12.0217 6.87525 11.7978 7.87886 11.8089C9.11453 11.7907 10.3292 12.1293 11.3773 12.7841C12.4102 13.4344 13.2528 14.3461 13.8199 15.4269C14.4288 16.5924 14.7362 17.8917 14.7143 19.2064C14.7347 20.5354 14.3979 21.8455 13.7391 22.9999C13.0989 24.1248 12.1669 25.0561 11.0414 25.6953C9.91596 26.3346 8.63878 26.6582 7.3447 26.6319ZM7.3447 24.2282C8.20282 24.2436 9.04787 24.0165 9.78259 23.5729C10.4957 23.1329 11.0784 22.5105 11.4705 21.7701C11.8925 20.9824 12.1063 20.0999 12.0916 19.2064C12.1105 18.3125 11.8964 17.429 11.4705 16.6428C11.0722 15.9137 10.4904 15.3013 9.78259 14.8664C9.04771 14.4233 8.20267 14.1967 7.3447 14.2126C6.49371 14.2016 5.65649 14.428 4.927 14.8664C4.21278 15.2958 3.62713 15.9093 3.23135 16.6428C2.81207 17.4312 2.60095 18.3136 2.61799 19.2064C2.60507 20.0988 2.81594 20.9802 3.23135 21.7701C3.6233 22.5192 4.21518 23.145 4.94129 23.5781C5.66739 24.0112 6.49932 24.2346 7.3447 24.2235V24.2282Z" fill="white"/>
<path d="M25.6397 26.6318C24.2671 26.6574 22.9108 26.3308 21.7003 25.6831C20.5773 25.0761 19.6439 24.1706 19.0031 23.0666C18.3386 21.8998 18.0017 20.5752 18.0279 19.2328C18.0279 17.7731 18.3348 16.4869 18.9487 15.3741C19.5419 14.2832 20.4248 13.3773 21.5 12.7561C22.6388 12.1107 23.9303 11.7836 25.2391 11.8089C26.6273 11.8089 27.8204 12.1158 28.8183 12.7297C29.8086 13.3368 30.6015 14.2181 31.1009 15.2669C31.6454 16.4325 31.9153 17.7074 31.8897 18.9936C31.894 19.1502 31.8653 19.306 31.8053 19.4507C31.7454 19.5955 31.6556 19.726 31.5419 19.8337C31.4245 19.9453 31.286 20.0323 31.1346 20.0896C30.9831 20.147 30.8217 20.1735 30.6599 20.1676H19.8975V18.0309H30.5807L29.486 18.7794C29.4817 17.9536 29.2995 17.1385 28.9518 16.3896C28.6312 15.6821 28.1064 15.0867 27.4448 14.6797C26.7833 14.2727 26.0151 14.0727 25.2391 14.1054C24.2236 14.1054 23.3556 14.328 22.6351 14.7731C21.921 15.2099 21.35 15.8456 20.9922 16.6023C20.6078 17.4251 20.4161 18.3247 20.4316 19.2328C20.4152 20.1496 20.6458 21.0539 21.0993 21.8508C21.5387 22.6114 22.1756 23.2392 22.9425 23.6676C23.7674 24.1229 24.6976 24.3532 25.6397 24.3353C26.2185 24.3294 26.792 24.2243 27.3354 24.0247C27.8338 23.8595 28.3048 23.6208 28.7329 23.3166C28.983 23.1256 29.2863 23.017 29.6009 23.0061C29.8984 22.9933 30.1897 23.0937 30.4161 23.2871C30.5518 23.3934 30.6644 23.5264 30.7469 23.6778C30.8294 23.8292 30.8801 23.9959 30.8959 24.1676C30.9022 24.3308 30.8662 24.493 30.7913 24.6382C30.7165 24.7835 30.6055 24.907 30.4689 24.9967C29.79 25.5149 29.0267 25.9121 28.2127 26.1707C27.3857 26.4629 26.5167 26.6187 25.6397 26.6318Z" fill="white"/>
<path d="M37.0171 26.5247C36.8339 26.5276 36.652 26.4937 36.4822 26.425C36.3123 26.3563 36.158 26.2542 36.0284 26.1247C35.8988 25.9953 35.7965 25.8411 35.7276 25.6713C35.6587 25.5016 35.6246 25.3197 35.6273 25.1365V7.0542C35.6208 6.86932 35.6528 6.6851 35.7212 6.51323C35.7896 6.34135 35.893 6.18557 36.0248 6.05576C36.1556 5.92863 36.3105 5.82893 36.4804 5.76253C36.6502 5.69613 36.8316 5.66437 37.014 5.66911C37.2684 5.66464 37.5189 5.73245 37.7363 5.86466C37.9537 5.99687 38.1291 6.18805 38.2422 6.416L46.6025 23.1629H45.7469L53.896 6.4129C54.0089 6.18483 54.1843 5.99354 54.4018 5.86131C54.6192 5.72908 54.8698 5.66135 55.1242 5.66601C55.3067 5.66185 55.4882 5.69418 55.6581 5.76111C55.8279 5.82804 55.9827 5.92821 56.1133 6.05576C56.2471 6.18463 56.3525 6.33999 56.4228 6.51191C56.4932 6.68383 56.5268 6.86853 56.5217 7.0542V25.1365C56.5256 25.321 56.4907 25.5042 56.4192 25.6743C56.3478 25.8444 56.2415 25.9976 56.1071 26.1241C55.9795 26.2525 55.8275 26.3541 55.66 26.4229C55.4926 26.4918 55.313 26.5263 55.132 26.5247C54.9489 26.5274 54.7672 26.4934 54.5975 26.4246C54.4279 26.3558 54.2738 26.2536 54.1443 26.1242C54.0149 25.9947 53.9127 25.8406 53.8439 25.6709C53.7751 25.5013 53.7411 25.3196 53.7438 25.1365V10.9005L54.2779 10.7669L47.281 25.0294C47.1596 25.2407 46.9845 25.4161 46.7734 25.538C46.5624 25.6599 46.3229 25.7239 46.0792 25.7235C45.8065 25.7327 45.5376 25.6583 45.3083 25.5104C45.0791 25.3625 44.9005 25.148 44.7966 24.8958L37.8711 11.034L38.4053 10.9005V25.1365C38.408 25.3196 38.3739 25.5013 38.3051 25.6709C38.2363 25.8406 38.1342 25.9947 38.0047 26.1242C37.8753 26.2536 37.7212 26.3558 37.5515 26.4246C37.3819 26.4934 37.2001 26.5274 37.0171 26.5247Z" fill="white"/>
<path d="M76.9456 6.83223C76.9181 6.52197 76.7862 6.23022 76.5714 6.00459C76.4698 5.89591 76.3466 5.80966 76.2097 5.75137C76.0728 5.69308 75.9252 5.66403 75.7764 5.66608C75.5244 5.65787 75.2749 5.71796 75.0543 5.84C74.8499 5.96347 74.6766 6.13245 74.5481 6.33378L68.1925 16.3586L61.9348 6.44093C61.8014 6.22097 61.63 6.02644 61.4286 5.86639C61.2182 5.72448 60.9677 5.65423 60.7143 5.66608C60.3891 5.66238 60.0728 5.77221 59.8199 5.97664C59.567 6.17363 59.4001 6.46071 59.354 6.77788C59.3112 7.15017 59.4062 7.52525 59.6211 7.83223L66.7515 18.9161V18.9968C66.988 19.2355 67.194 19.5026 67.3649 19.7919C67.5005 20.1128 67.6361 20.4342 67.7717 20.7561C67.9071 21.1806 67.9484 21.6294 67.8929 22.0714C67.9871 22.4107 68.0253 22.7632 68.0062 23.1148C67.9912 23.2857 67.9855 23.4573 67.9891 23.6288C68.0543 23.9161 68.1444 24.371 68.163 24.4316C68.3432 25.09 68.5559 25.7375 68.7034 26.4052C68.852 26.3373 68.9872 26.2431 69.1025 26.1273C69.2332 25.9987 69.3362 25.8448 69.4051 25.675C69.474 25.5051 69.5073 25.3229 69.5031 25.1397V18.913L76.6879 7.82913C76.8847 7.53582 76.9756 7.18418 76.9456 6.83223Z" fill="white"/>
<path d="M83.4348 3.20801C81.8801 3.82198 80.3747 4.55393 78.9317 5.39745C78.6223 5.57693 78.3969 5.87187 78.3048 6.21748C78.2128 6.56309 78.2618 6.93109 78.441 7.24062V7.24993C78.6245 7.55466 78.921 7.77457 79.2659 7.86181C79.6108 7.94906 79.9762 7.89657 80.2826 7.71577C81.824 6.88658 83.4185 6.16035 85.0559 5.54186" fill="#FCFCFC"/>
</g>
<defs>
<clipPath id="clip0">
<rect width="131.665" height="41" fill="white"/>
</clipPath>
</defs>
</svg>
