<svg width="60" height="66" viewBox="0 0 60 66" fill="none" xmlns="http://www.w3.org/2000/svg">
<path d="M58.9639 63.3263L33.5764 35.6232V32.2916C33.5764 29.4776 31.2871 27.1881 28.4729 27.1881H22.0931V16.9807C22.0931 16.3254 21.9675 15.6992 21.7416 15.1232C24.8902 14.1718 27.1966 11.2384 27.1966 7.7943C27.1966 3.57319 23.7624 0.139038 19.5413 0.139038C15.3202 0.139038 11.8861 3.57319 11.8861 7.7943C11.8861 9.73822 12.605 11.5558 13.8724 12.9441C12.6654 13.8784 11.8861 15.34 11.8861 16.9807V32.2916V44.4177L0.982559 55.3211C0.484329 55.8193 0.484329 56.6272 0.982559 57.1256L6.39559 62.5387C6.63482 62.778 6.9594 62.9124 7.29777 62.9124C7.63613 62.9124 7.96071 62.778 8.19994 62.5387L11.8859 58.8528V64.1884C11.8859 64.893 12.4572 65.4643 13.1618 65.4643H20.8171C21.5218 65.4643 22.093 64.893 22.093 64.1884V56.5328C22.093 55.8283 21.5218 55.2569 20.8171 55.2569C20.1124 55.2569 19.5412 55.8283 19.5412 56.5328V62.9126H14.4377V36.7086C15.1889 37.1443 16.0602 37.3951 16.9895 37.3951H19.5412V45.0498C19.5412 45.7543 20.1124 46.3256 20.8171 46.3256C21.5218 46.3256 22.093 45.7543 22.093 45.0498V37.3951H31.7391L57.0826 65.0503C57.3342 65.3249 57.6783 65.4642 58.0236 65.4642C58.3314 65.4642 58.6403 65.3534 58.8852 65.1289C59.4048 64.6529 59.44 63.8457 58.9639 63.3263ZM14.4377 7.7943C14.4377 4.98023 16.7271 2.69079 19.5412 2.69079C22.3553 2.69079 24.6447 4.98023 24.6447 7.7943C24.6447 10.4396 22.6042 12.6332 20.0151 12.8739C19.1678 12.248 18.1212 11.8771 16.9893 11.8771C16.8286 11.8771 16.6697 11.8855 16.5127 11.9001C15.2069 10.939 14.4377 9.43457 14.4377 7.7943ZM7.29777 59.832L3.68908 56.2233L11.8859 48.0264V55.2438L7.29777 59.832ZM31.0246 34.8434H16.9895C15.5824 34.8434 14.4377 33.6987 14.4377 32.2916V16.9807C14.4377 15.5737 15.5824 14.429 16.9895 14.429C18.3965 14.429 19.5412 15.5737 19.5412 16.9807V28.464C19.5412 29.1686 20.1124 29.7399 20.8171 29.7399H28.4727C29.8798 29.7399 31.0245 30.8846 31.0245 32.2916V34.8434H31.0246Z" fill="white"/>
<path d="M20.8172 49.515C20.1125 49.515 19.5413 50.0863 19.5413 50.7908V50.7917C19.5413 51.4963 20.1125 52.0671 20.8172 52.0671C21.5219 52.0671 22.0931 51.4955 22.0931 50.7908C22.0931 50.0862 21.5219 49.515 20.8172 49.515Z" fill="white"/>
</svg>
