<svg width="66" height="66" viewBox="0 0 66 66" fill="none" xmlns="http://www.w3.org/2000/svg">
<path d="M21.0112 51.4391C17.2447 51.4391 14.1914 54.5765 14.1914 58.4466C14.1914 62.3167 17.2448 65.454 21.0112 65.454C24.7778 65.454 27.831 62.3166 27.831 58.4466C27.8312 54.5765 24.7778 51.4391 21.0112 51.4391ZM21.0112 62.3397C18.9187 62.3397 17.2225 60.5968 17.2225 58.4467C17.2225 56.2966 18.9187 54.5537 21.0112 54.5537C23.1037 54.5537 24.8 56.2966 24.8 58.4467C24.8001 60.5968 23.1037 62.3397 21.0112 62.3397Z" fill="white"/>
<path d="M49.8063 51.4391C46.0397 51.4391 42.9865 54.5765 42.9865 58.4466C42.9865 62.3167 46.0399 65.454 49.8063 65.454C53.5727 65.454 56.6261 62.3166 56.6261 58.4466C56.6261 54.5765 53.5729 51.4391 49.8063 51.4391ZM49.8063 62.3397C47.7138 62.3397 46.0175 60.5968 46.0175 58.4467C46.0175 56.2966 47.7138 54.5537 49.8063 54.5537C51.8988 54.5537 53.595 56.2966 53.595 58.4467C53.5952 60.5968 51.8988 62.3397 49.8063 62.3397Z" fill="white"/>
<path d="M65.1889 10.5623C64.8733 10.2081 64.4415 9.98632 63.9765 9.93938L14.6461 9.23864L13.2822 4.95624C12.3213 2.09351 9.71226 0.160887 6.76533 0.128845H1.68832C0.851291 0.128845 0.172791 0.82601 0.172791 1.68607C0.172791 2.54612 0.851291 3.24329 1.68832 3.24329H6.76533C8.41313 3.28069 9.86412 4.36787 10.4027 5.96846L20.0263 35.7892L19.2686 37.5799C18.4234 39.8193 18.6772 42.3397 19.9505 44.3538C21.2117 46.332 23.3333 47.5529 25.6338 47.624H55.1109C55.9479 47.624 56.6264 46.9268 56.6264 46.0668C56.6264 45.2067 55.9479 44.5096 55.1109 44.5096H25.6337C24.3345 44.4762 23.1387 43.7739 22.451 42.6409C21.7711 41.5216 21.6314 40.1428 22.0722 38.9035L22.6785 37.502L54.5803 34.0761C58.0845 33.6795 60.967 31.0607 61.7791 27.5357L65.4165 11.8857C65.5803 11.435 65.4933 10.9282 65.1889 10.5623ZM58.8238 26.8351C58.3318 29.1043 56.4569 30.778 54.2015 30.9618L22.6785 34.3097L15.6312 12.3531L62.0821 13.0538L58.8238 26.8351Z" fill="white"/>
</svg>
