<svg width="66" height="66" viewBox="0 0 66 66" fill="none" xmlns="http://www.w3.org/2000/svg">
<path d="M51.8303 19.5083L64.6785 6.65993C65.3993 5.93893 65.7965 4.97769 65.7965 3.95329C65.7965 2.92901 65.3993 1.96764 64.6784 1.24677C63.9575 0.525898 62.9964 0.128845 61.972 0.128845C60.9476 0.128845 59.9863 0.525898 59.2654 1.2469L44.0898 16.4226C40.5514 15.4313 36.8695 14.9291 33.134 14.9291C26.4491 14.9291 19.8863 16.5641 14.1548 19.6573C8.5783 22.6667 3.91497 26.9728 0.668753 32.1098C0.405667 32.5262 0.405667 33.0567 0.668753 33.473C3.9905 38.7299 8.72783 43.0585 14.437 46.0752L1.58943 58.9229C0.868427 59.6438 0.471375 60.605 0.471375 61.6294C0.471375 62.6537 0.868427 63.615 1.58943 64.336C2.31042 65.0568 3.27167 65.454 4.29594 65.454C5.32022 65.454 6.28159 65.0569 7.00246 64.336L22.1775 49.1609C25.7157 50.1518 29.3978 50.6537 33.134 50.6537C39.8188 50.6537 46.3816 49.0188 52.1131 45.9256C57.6896 42.916 62.3529 38.6101 65.599 33.4729C65.8621 33.0565 65.8621 32.526 65.599 32.1097C62.2777 26.8536 57.5401 22.5252 51.8303 19.5083ZM3.26899 32.7915C7.6353 26.2639 14.396 21.4576 22.1647 19.1032C19.6775 21.0952 17.7903 23.6995 16.6799 26.6952C16.435 27.3559 16.7721 28.0901 17.4328 28.335C17.579 28.3893 17.7288 28.4149 17.876 28.4149C18.3944 28.4149 18.8819 28.0966 19.0725 27.5821C21.2411 21.7311 26.892 17.7999 33.1338 17.7999C35.8151 17.7999 38.3941 18.5016 40.6763 19.8359L36.1332 24.3791C35.5736 24.1789 34.9979 24.0374 34.4097 23.9534V21.437C34.4097 20.7325 33.8385 20.1611 33.1338 20.1611C32.4292 20.1611 31.8579 20.7325 31.8579 21.437V23.9529C31.1483 24.0549 30.4661 24.2413 29.8201 24.5003L28.5615 22.3203C28.2092 21.7102 27.4289 21.5008 26.8186 21.8533C26.2084 22.2057 25.9992 22.9859 26.3516 23.5962L27.6122 25.7796C27.0589 26.2162 26.5586 26.7166 26.1219 27.2699L23.9385 26.0094C23.3281 25.6572 22.548 25.8661 22.1956 26.4763C21.8432 27.0866 22.0523 27.8668 22.6626 28.2192L24.8427 29.4778C24.5835 30.1238 24.3973 30.806 24.2953 31.5157H22.6073C21.9027 31.5157 21.3315 32.087 21.3315 32.7915C21.3315 33.4961 21.9027 34.0674 22.6073 34.0674H24.2957C24.3795 34.6556 24.521 35.2314 24.7211 35.791L20.1765 40.3356C19.7417 39.5904 19.3716 38.8096 19.0719 38.001C18.8269 37.3403 18.0931 37.0032 17.432 37.2481C16.7713 37.493 16.4343 38.2272 16.6791 38.8879C17.1074 40.0436 17.659 41.1502 18.3208 42.1913L16.3314 44.1807C10.9551 41.4875 6.46481 37.5738 3.26899 32.7915ZM26.8195 33.6927C26.7778 33.3964 26.7546 33.096 26.7546 32.7914C26.7546 29.2738 29.6164 26.412 33.134 26.412C33.4385 26.412 33.739 26.4353 34.0352 26.477L26.8195 33.6927ZM5.19812 62.5316C4.95914 62.7706 4.63877 62.9022 4.29594 62.9022C3.95311 62.9022 3.63274 62.7706 3.39377 62.5316C3.15467 62.2926 3.02313 61.9723 3.02313 61.6296C3.02313 61.2866 3.15467 60.9664 3.39377 60.7274L61.0698 3.05137C61.3088 2.8124 61.6291 2.68073 61.972 2.68073C62.3148 2.68073 62.635 2.8124 62.874 3.05137C63.1131 3.29034 63.2446 3.61071 63.2446 3.95341C63.2446 4.29637 63.1131 4.61661 62.874 4.85559L5.19812 62.5316ZM33.134 47.783C30.4523 47.783 27.8733 47.0814 25.5911 45.7474L30.1344 41.2042C30.6941 41.4044 31.2698 41.5457 31.8581 41.6296V44.146C31.8581 44.8505 32.4293 45.4218 33.134 45.4218C33.8386 45.4218 34.4098 44.8505 34.4098 44.146V41.6299C35.1195 41.528 35.8017 41.3416 36.4475 41.0826L37.7062 43.2627C37.9425 43.672 38.3713 43.9009 38.8122 43.9009C39.0286 43.9009 39.2481 43.8456 39.449 43.7296C40.0593 43.3772 40.2684 42.597 39.916 41.9868L38.6554 39.8034C39.2088 39.3667 39.7091 38.8664 40.1458 38.313L42.3292 39.5736C42.5301 39.6896 42.7495 39.7448 42.966 39.7448C43.4069 39.7448 43.8358 39.5159 44.072 39.1066C44.4244 38.4964 44.2153 37.7162 43.6051 37.3638L41.425 36.1051C41.6841 35.4592 41.8704 34.7769 41.9723 34.0673H44.4882C45.1929 34.0673 45.7641 33.496 45.7641 32.7914C45.7641 32.0869 45.1929 31.5155 44.4882 31.5155H41.9717C41.8877 30.9275 41.7464 30.3518 41.5462 29.7921L46.0892 25.2491C47.4235 27.5315 48.1252 30.1105 48.1252 32.7914C48.1255 41.0578 41.4004 47.783 33.134 47.783ZM39.4483 31.8901C39.49 32.1865 39.5133 32.4869 39.5133 32.7914C39.5133 36.309 36.6515 39.1708 33.134 39.1708C32.8293 39.1708 32.5289 39.1476 32.2327 39.1059L39.4483 31.8901ZM44.0874 46.4844C48.1018 43.2666 50.6773 38.3245 50.6773 32.7914C50.6773 29.4287 49.7339 26.2023 47.9452 23.3932L49.9355 21.4029C55.3128 24.0962 59.8032 28.0097 62.9988 32.7913C58.6295 39.3234 51.8627 44.1317 44.0874 46.4844Z" fill="white"/>
<path d="M18.1425 32.7916C18.1425 32.0871 17.5713 31.5157 16.8666 31.5157H16.8657C16.161 31.5157 15.5903 32.0871 15.5903 32.7916C15.5903 33.4962 16.1619 34.0675 16.8666 34.0675C17.5713 34.0675 18.1425 33.4962 18.1425 32.7916Z" fill="white"/>
</svg>
